<svg xmlns="http://www.w3.org/2000/svg" width="90.128" height="82" viewBox="0 0 90.128 82"><path d="M25.754,56.882c-2.646.049-5.482,2.913-5.482,5.452,0,2.4,2.355,2.911,3.392,2.911,3,0,6.029-3.07,6.029-5.507a2.419,2.419,0,0,0-.855-1.9l-1.4,1.266a1.542,1.542,0,0,1,.5,1.156,3.908,3.908,0,0,1-3.664,3.3A2.043,2.043,0,0,1,22,61.717a3.649,3.649,0,0,1,3.336-3.256c.1,0,.178.006.222.01l.61-1.575c-.068-.006-.186-.016-.338-.016h-.072m6.039-8.466L30.4,49.731l2.2,1.794-3.12,2.949L27.3,52.66l-1.389,1.311,5.456,4.571,1.4-1.332-2.287-1.9,3.126-2.957,2.3,1.882,1.41-1.337-5.526-4.48m7.629-.424,2.318-1.471-2.474-1.553.156,3.024m.072-4.937,6.717,4.025-1.785,1.132-1.514-.954L39.5,49.424l.1,1.851-1.736,1.1-.242-8.13,1.875-1.191m7.729-4.024-1.74.731L47,46.872l5.818-2.423-.3-1.337L48.472,44.8,47.223,39.03m8.668-3.018-1.782.439-.286,7.73,5.958-1.432.039-1.457-4.143,1,.213-6.28m12.725-1.8-5.689.384-2.155,8.062,5.739-.339.39-1.5-3.956.239.5-1.876,3.572-.222.367-1.407-3.567.228.487-1.837,3.933-.259.383-1.474m3.509.057-4.283,8.023,1.648.29,3.044-5.722.831,6.4,1.76.309,4.267-8.118-1.671-.273-2.817,5.341L74.178,34.6l-2.051-.334m11.609,3.175c-3.5.135-6.258,3.4-6.258,5.647A3.075,3.075,0,0,0,80.7,46.034a3.6,3.6,0,0,0,1.448-.3l-.65.914,1.16.594,3.389-3.946-3.662-1.838-1.1,1.27L83.6,43.892a3.148,3.148,0,0,1-2.012.768c-.869,0-2.254-.522-2.254-1.9,0-1.521,2.025-3.8,4.213-3.8.922,0,2.232.472,2.232,1.734a2.121,2.121,0,0,1-.249.967l1.8.185a3.445,3.445,0,0,0,.352-1.476c0-1.878-1.869-2.938-3.739-2.938q-.1,0-.209,0m7.87,4.22-8.169,6.424,3.483,3.529,1.513-1.191-2.417-2.431,1.9-1.492,2.2,2.191,1.43-1.124-2.205-2.184L91.2,43.91l2.45,2.4,1.51-1.188L91.605,41.66m7.871,10.127-4.97,5.026-4.176,1.65.43,1.546,4.189-1.651,6.646.529-.522-1.751-4.5-.218,3.438-3.336-.535-1.794M95.67,68.934c1.324-.006,4.387-.894,4.387-3.539a2.255,2.255,0,0,0-2.514-2.187c-1.312,0-4.408.887-4.408,3.53a2.209,2.209,0,0,0,2.516,2.2h.019m2.2-7.532h.078c3.9,0,4.076,3.194,4.076,3.628,0,3.329-3.467,5.752-6.765,5.752-2,0-4.073-1.08-4.073-3.635,0-3.445,3.584-5.705,6.684-5.744M93.906,72.79a4.75,4.75,0,0,0-4.764,4.575c0,1.3.794,2.4,2.755,2.578l6.522.6.619-1.833-6.374-.574c-.583-.052-1.516-.278-1.516-1.259a2.116,2.116,0,0,1,.13-.688,2.287,2.287,0,0,1,2.3-1.588c.071,0,.173,0,.3.013l6.356.545.611-1.809-6.488-.543c-.2-.017-.361-.019-.452-.019h0M91.384,88.043h.024A1.968,1.968,0,0,0,93.019,87l.884-1.423-2.512-.9-.884,1.416a1.8,1.8,0,0,0-.321.949.945.945,0,0,0,.692.912,1.532,1.532,0,0,0,.506.1m-3.838-6.882,8.99,3.2-2.183,3.526a4.2,4.2,0,0,1-3.436,2.064,2.355,2.355,0,0,1-2.631-2.207,2.923,2.923,0,0,1,.134-.848l-4.847.585,1.218-1.938,4.527-.505.567-.908L86.454,82.9l1.093-1.737M78.309,93.05l-1.625,1.47,6.572,6.214,1.646-1.5L78.309,93.05m-2.963,3.056-1.768,1.087,3.062,5.421-5.8-3.742-1.538.946.275,7.187-3.005-5.51-1.817,1.116,4.276,7.917,2.558-1.568-.338-7.443,6.069,3.929,2.479-1.521-4.456-7.82M59.805,111.694l1.026-3.97-2.849.872,1.822,3.1m4.234-8.848L61.166,113.39l-2.347.71L53.9,105.973l2.157-.665,1.08,1.843,4.174-1.281.609-2.369,2.119-.654m-14.264,3.159c-.065,0-.13,0-.2,0a4.568,4.568,0,0,0-3.518,1.49l.086-1.094-1.564.094-.98,5.032,4.99-.274.31-1.652-3.156.179a3.367,3.367,0,0,1,3.246-2.047,2.224,2.224,0,0,1,2.412,2.38,4.206,4.206,0,0,1-4.063,4.3,1.939,1.939,0,0,1-2.163-1.745l-1.983.747c.3,2.25,2.293,2.8,3.671,2.8a6.646,6.646,0,0,0,6.558-6.484,3.533,3.533,0,0,0-3.65-3.719m-8.429-.194-3.861,9.579,1.838.288,3.851-9.605-1.828-.262m-8.785-2.772L26.974,112l1.574.628,3.708-5.964-.314,7.317,2,.8,5.6-9.089-1.606-.61-3.961,6.413.248-7.824-1.657-.63m-9.734,2.967,3.7-2.134-1.671-1.494-2.028,3.628m2.92-8.615,1.272,1.118L25.8,100.682l2.463,2.186,2.237-1.294,1.268,1.115-9.928,5.564-1.352-1.237,5.257-9.624M24.2,94.451l-7,4.993L15.935,97.3l-1.579,1.127,3.317,5.665,1.6-1.14-1.283-2.173,7.018-5.009L24.2,94.451m-1.912-4.5-9.045,4.85.478,1.5,9.073-4.86-.506-1.491m-6.774-.674h.054c1.669,0,4.234-1.433,4.234-3.706a1.809,1.809,0,0,0-1.943-1.926,4.084,4.084,0,0,0-4.231,3.717,1.794,1.794,0,0,0,1.886,1.914m2.883-7.377A3.02,3.02,0,0,1,21.561,85.1c0,3.264-3.479,5.957-6.458,5.957a3.008,3.008,0,0,1-3.21-3.18c0-3.378,3.6-5.971,6.455-5.971h.045m4.574-9.537-8.862.8-.41,1.642,5.854-.522-6.739,4.059-.519,2.077,8.934-.747.4-1.681-6.343.54,7.27-4.434.415-1.74" transform="translate(-11.893 -34.208)"/></svg>