<svg id="Innovation_Icon" data-name="Innovation Icon" xmlns="http://www.w3.org/2000/svg" width="72" height="72" viewBox="0 0 72 72">
  <defs>
    <style>
      .cls-1 {
        fill: none;
      }
    </style>
  </defs>
  <rect id="Box" class="cls-1" width="72" height="72"/>
  <path id="Innovation" d="M356-445a31.269,31.269,0,0,1-.51,5.715,32.7,32.7,0,0,0-11.28,2,32.679,32.679,0,0,0,0-11.46,33.539,33.539,0,0,1,5.55-1.485,32.409,32.409,0,0,1,5.73-.51A31.478,31.478,0,0,1,356-445Zm-23.085-23.295a32.691,32.691,0,0,1,7.38,8.775,32.707,32.707,0,0,1,11.28-1.995,32.982,32.982,0,0,0-7.38-8.775A33.043,33.043,0,0,0,332.915-468.295Zm7.365,41.79a33.041,33.041,0,0,1-7.335,8.76,33.048,33.048,0,0,1,11.25-1.98c0,.015.015,0,.015,0a32.817,32.817,0,0,0,7.38-8.79A32.975,32.975,0,0,0,340.28-426.505Zm.015-33.015a32.839,32.839,0,0,0-5.22,2.43,34.209,34.209,0,0,0-4.71,3.285,32.673,32.673,0,0,1,3.915,10.785,32.5,32.5,0,0,1,9.93-5.73,33.754,33.754,0,0,0-1.485-5.55A33.2,33.2,0,0,0,340.295-459.52Zm-6.015,27.96a32.524,32.524,0,0,1-3.915,10.785,32.1,32.1,0,0,1,9.915-5.73,32.83,32.83,0,0,0,3.93-10.785A33.135,33.135,0,0,0,334.28-431.56Zm-7.365-2.67a32.781,32.781,0,0,1,.015,11.415,32.83,32.83,0,0,1,7.35-8.745,33.04,33.04,0,0,0,0-11.46A33.1,33.1,0,0,0,326.915-434.23Zm7.425,20.235A32.7,32.7,0,0,0,323-412,33.019,33.019,0,0,0,334.34-413.995ZM323-462.58a32.76,32.76,0,0,0-4.08,4.08,32.8,32.8,0,0,0-3.3,4.7A32.754,32.754,0,0,1,323-445a32.424,32.424,0,0,1,7.365-8.8,32.8,32.8,0,0,0-3.3-4.7A33.7,33.7,0,0,0,323-462.58Zm-11.295-13.44A32.7,32.7,0,0,1,323-474.01a32.616,32.616,0,0,1,11.28-2.01A33.027,33.027,0,0,0,323-478,33.113,33.113,0,0,0,311.705-476.02ZM323-474.01a32.825,32.825,0,0,0-9.93,5.715A32.522,32.522,0,0,1,323-462.58a32.147,32.147,0,0,1,9.915-5.715A32.932,32.932,0,0,0,323-474.01ZM323-412a32.951,32.951,0,0,0,9.945-5.745A32.776,32.776,0,0,0,323-412Zm0-33a32.751,32.751,0,0,0-3.915,10.77A33.152,33.152,0,0,1,323-423.565a33.152,33.152,0,0,1,3.915-10.665A32.751,32.751,0,0,0,323-445Zm.18,32.685L323-412a33.18,33.18,0,0,0,7.365-8.775A32.823,32.823,0,0,0,323.18-412.315Zm0,0a32.928,32.928,0,0,0,3.75-10.5A32.863,32.863,0,0,0,323-412Zm-.18-11.25A33.271,33.271,0,0,0,323-412,33.271,33.271,0,0,0,323-423.565Zm-11.34,9.57A32.955,32.955,0,0,0,323-412,32.7,32.7,0,0,0,311.66-413.995ZM323-412a32.863,32.863,0,0,0-3.93-10.815A32.8,32.8,0,0,0,323-412Zm0,0a32.658,32.658,0,0,0-7.38-8.79A32.789,32.789,0,0,0,323-412Zm-9.945-5.745A32.951,32.951,0,0,0,323-412,32.955,32.955,0,0,0,313.055-417.745ZM311.72-443.02a32.325,32.325,0,0,0,0,11.46,32.83,32.83,0,0,1,7.35,8.745,32.423,32.423,0,0,1,.015-11.415A33.379,33.379,0,0,0,311.72-443.02Zm-.81-14.07a33.315,33.315,0,0,0-5.2-2.43,33.2,33.2,0,0,0-2.43,5.22,32.752,32.752,0,0,0-1.5,5.55,32.575,32.575,0,0,1,9.945,5.73,32.64,32.64,0,0,1,3.9-10.785A34.208,34.208,0,0,0,310.91-457.09Zm-9.12,19.8a32.5,32.5,0,0,0,3.93,10.785,32.289,32.289,0,0,1,9.9,5.715,32.415,32.415,0,0,1-3.9-10.77A33.135,33.135,0,0,0,301.79-437.29Zm.015-33a32.982,32.982,0,0,0-7.38,8.775,32.645,32.645,0,0,1,11.28,1.995,32.6,32.6,0,0,1,7.365-8.775A32.9,32.9,0,0,0,301.8-470.29Zm-7.395,41.775a32.817,32.817,0,0,0,7.38,8.79,33.069,33.069,0,0,1,11.265,1.98,32.76,32.76,0,0,1-7.335-8.76A32.911,32.911,0,0,0,294.41-428.515Zm1.815-21.72a32.368,32.368,0,0,0-5.715-.51A31.478,31.478,0,0,0,290-445a31.269,31.269,0,0,0,.51,5.715,32.7,32.7,0,0,1,11.28,2,32.673,32.673,0,0,1-.015-11.46A33.54,33.54,0,0,0,296.225-450.235Z" transform="translate(-287 481)"/>
</svg>
