<svg id="Magic_Icon" data-name="Magic Icon" xmlns="http://www.w3.org/2000/svg" width="72" height="72" viewBox="0 0 72 72">
  <defs>
    <style>
      .cls-1 {
        fill: none;
      }
    </style>
  </defs>
  <rect id="Box" class="cls-1" width="72" height="72"/>
  <path id="Magic" d="M419.5-444.494l-.013.045,0-.039v-.006l.009-.01Zm.055.414q0,.094-.009.207v.006c1.78,6.331,7.659,10.1,14.569,10.1,5.463,0,11.571-2.354,16.806-7.652L454-444.5l-5.271-5.271c-3.291,7.657-10.077,13.08-17.312,13.08a14.62,14.62,0,0,1-5.482-1.075,10.07,10.07,0,0,1-3.643-2.367h0l.008.01a14.761,14.761,0,0,1-2.747-4.1C419.554-444.176,419.557-444.13,419.557-444.08Zm-.672,3.7c0,7.8,6.839,13.9,15.974,15.018l5.385-5.385a20.826,20.826,0,0,1-6.18.96c-8.03,0-14.675-4.982-14.675-12.861a14.829,14.829,0,0,1,.108-1.761l-.009-.043A14.493,14.493,0,0,0,418.885-440.377Zm.667-3.841a.936.936,0,0,0-.047-.266l-.009.078A1.407,1.407,0,0,0,419.552-444.218Zm-.063-.288h0l.016-.021a12.342,12.342,0,0,0-4.36,9.63c0,6.306,4.174,13.271,12.145,17.1l4.263-4.263c-9.406-1.531-14.766-8.43-14.766-15.012a11.427,11.427,0,0,1,2.693-7.424Zm.012.012,0,.01,0-.042Zm4.342-9.426c0-6.373-4.32-13.5-12.033-17.391l-4.253,4.253c8.87,1.65,14.73,8.559,14.73,15.232a10.952,10.952,0,0,1-2.778,7.3A11.814,11.814,0,0,0,423.844-453.92Zm-15.081,23.842a24.122,24.122,0,0,0,6.815,16.155L419.5-410l5.2-5.2c-8.22-3.4-13.02-10.922-13.02-17.7a12.219,12.219,0,0,1,7.828-11.619C412.408-442.789,408.763-436.891,408.763-430.078Zm15.051-13.557c6.991,0,13.606-6.786,14.884-16.167l-5.411-5.411a20.628,20.628,0,0,1,1,6.222,15.87,15.87,0,0,1-3.617,10.332.094.094,0,0,1,.03-.024l0,0c0,.1-3.75,4.417-8.977,4.417a9.5,9.5,0,0,1-2.213-.263A10.918,10.918,0,0,0,423.814-443.635Zm6.454-15.594a21.475,21.475,0,0,0-3.147-10.9c-2.277-3.936-5.728-6.975-7.621-8.868h0l-5.244,5.244c8.922,3.719,12.987,11.13,12.987,17.629,0,5.319-2.722,10.028-7.732,11.6C425.393-445.326,430.268-451.447,430.268-459.229Zm-1.344,19.073c6.366,0,13.521-4.271,17.414-12.006l-4.329-4.329c-1.371,7.528-6.344,13.1-11.688,14.259a13.1,13.1,0,0,1-3.276.417,11.26,11.26,0,0,1-7.534-2.711A11.724,11.724,0,0,0,428.924-440.156Zm-8.646-8.574c0-7.272-6.827-13.692-16.142-14.907l-5.319,5.319a20.265,20.265,0,0,1,5.883-.888c8.26,0,15.015,5.319,15.015,12.489a12.046,12.046,0,0,1-.206,2.191A12.085,12.085,0,0,0,420.279-448.73Zm-4.491,3.567c-8.247,0-14.311,6.921-15.459,15.991l5.365,5.365a20.4,20.4,0,0,1-.961-6.081,16.486,16.486,0,0,1,2.61-9.053,11.779,11.779,0,0,1,9.59-5.737c.14-.012.277-.016.414-.016.747,0,1.437.148,2.164.168a21.194,21.194,0,0,0-2.612-.6Q416.336-445.164,415.787-445.163Zm-11.053-10.076c-5.326,0-11.326,2.223-16.658,7.662L385-444.5l5.238,5.238c3.634-8.784,11.149-13.019,17.743-13.019,5.2,0,9.833,2.637,11.529,7.755C418.567-450.707,412.338-455.239,404.734-455.239Zm5.22,6.368c-6.376,0-13.414,4.293-17.276,12.049l4.265,4.265c1.632-8.93,8.428-14.742,15.129-14.742a11.4,11.4,0,0,1,7.438,2.773A12.227,12.227,0,0,0,409.954-448.871Z" transform="translate(-383.5 480.5)"/>
</svg>
