<svg id="Story_Icon" data-name="Story Icon" xmlns="http://www.w3.org/2000/svg" width="72" height="72" viewBox="0 0 72 72">
  <defs>
    <style>
      .cls-1 {
        fill: none;
      }
    </style>
  </defs>
  <rect id="Box" class="cls-1" width="72" height="72"/>
  <path id="Story" d="M69.158-444.72a12.9,12.9,0,0,1-2.63,7.6,14.184,14.184,0,0,1-2.739,2.8c-.51.4-1.029.777-1.551,1.123-.547.336-1.12.636-1.678.917q-.18-.839-.395-1.633c-.168-.54-.361-1.071-.555-1.58-.236-.607-.471-1.2-.729-1.779l-.87-1.7a12.321,12.321,0,0,0,3-2.769,5.8,5.8,0,0,0,1.2-2.982,5.8,5.8,0,0,0-1.2-2.982,12.321,12.321,0,0,0-3-2.769l.87-1.7c.258-.579.493-1.172.729-1.779.194-.51.387-1.039.555-1.58q.214-.794.395-1.633c.558.281,1.131.581,1.678.917.522.346,1.041.721,1.551,1.123a14.184,14.184,0,0,1,2.739,2.8A12.9,12.9,0,0,1,69.158-444.72Zm-14.336-7.449c-.453-.186-.889-.362-1.333-.518l-1.374-.4c-.205.468-.4.91-.606,1.342l-.678,1.262c-.4.789-.879,1.534-1.246,2.2a7.112,7.112,0,0,0-1.274,3.559,7.112,7.112,0,0,0,1.274,3.559c.367.668.849,1.413,1.246,2.2l.678,1.262c.208.432.4.875.606,1.342l1.374-.4c.444-.156.881-.331,1.333-.518.531-.22,1.092-.466,1.64-.747.516-.288,1.036-.606,1.549-.951-.613-1.242-1.409-2.376-1.877-3.317a4.819,4.819,0,0,1-.875-2.434,4.819,4.819,0,0,1,.875-2.434c.468-.941,1.263-2.075,1.877-3.317-.513-.345-1.034-.663-1.549-.952C55.914-451.7,55.353-451.949,54.822-452.169Zm-13.171-5.388a7.343,7.343,0,0,0,.432.9,4.7,4.7,0,0,0,1.1,1.327,4.092,4.092,0,0,0,1.556.769,14.256,14.256,0,0,0,2.035.446c.745.136,1.637.224,2.5.4l1.408.26c.473.1.935.229,1.43.362l.543-1.326c.15-.443.288-.9.424-1.365.156-.553.321-1.151.434-1.747.1-.585.175-1.191.228-1.807-1.352-.3-2.745-.377-3.759-.611a5.15,5.15,0,0,1-2.465-.816,5.573,5.573,0,0,1-1.353-2.2c-.211-.5-.42-1.063-.639-1.683l-.777-1.867a17.618,17.618,0,0,0-3.313,1.426,24.715,24.715,0,0,0-2.406,1.551,45.659,45.659,0,0,1,2.18,4.984C41.354-458.186,41.5-457.855,41.651-457.558Zm3.1-8.952c2.732-.918,5.645-.805,7.106.321a5.549,5.549,0,0,1,1.6,2.783,12.714,12.714,0,0,1,.289,4.074l1.863.381c.623.151,1.225.34,1.848.534.519.165,1.05.347,1.581.548q.756.326,1.524.709c.127-.612.252-1.25.325-1.884.056-.625.087-1.265.09-1.913a14.464,14.464,0,0,0-.479-3.883,13.522,13.522,0,0,0-1.554-3.685,12.941,12.941,0,0,0-2.75-3.093,11.925,11.925,0,0,0-3.639-1.983,15.553,15.553,0,0,0-1.943-.53,18.149,18.149,0,0,0-2-.183,16.515,16.515,0,0,0-7.5,1.638,22.687,22.687,0,0,1,1.923,2.742A28.864,28.864,0,0,1,44.751-466.509Zm-20.8.372a19.089,19.089,0,0,1,.891-1.923,12.819,12.819,0,0,1,1.145-1.6,5.2,5.2,0,0,1,2.644-1.831A5.409,5.409,0,0,1,31.8-471a13.14,13.14,0,0,1,3.361,2.3,30.006,30.006,0,0,1,3.029-2.326,21.142,21.142,0,0,1,2.92-1.65,16.989,16.989,0,0,0-6.039-4.742,15.437,15.437,0,0,0-3.843-1.081,13.2,13.2,0,0,0-4.143.229,11.811,11.811,0,0,0-3.831,1.611,14.758,14.758,0,0,0-1.626,1.193,17.948,17.948,0,0,0-1.387,1.446,16.586,16.586,0,0,0-3.387,6.883,24.224,24.224,0,0,1,3.342.208A29.325,29.325,0,0,1,23.946-466.137Zm5.076,8a7.909,7.909,0,0,0,.971.226,4.816,4.816,0,0,0,1.714-.028,3.954,3.954,0,0,0,1.56-.744A10.175,10.175,0,0,0,34.893-460c1.15-1.01,2.5-2.334,4.139-3.532a21.053,21.053,0,0,0-1.5-2.43,17.476,17.476,0,0,0-2.369-2.737c-1.072.93-2.01,1.883-2.823,2.571a5.355,5.355,0,0,1-2.172,1.413,5.665,5.665,0,0,1-2.562-.318c-.519-.144-1.095-.339-1.714-.548l-1.944-.556a17.646,17.646,0,0,0-.95,3.48,26.787,26.787,0,0,0-.292,2.849,47.118,47.118,0,0,1,5.268,1.4A10.591,10.591,0,0,0,29.022-458.138ZM19.8-447.975a7.574,7.574,0,0,0,2.719-2.619,7.6,7.6,0,0,0,.36-3.776q-.077-1.244-.158-2.535c-.01-.876-.072-1.9-.018-2.9a24.464,24.464,0,0,0-2.839-.344,19.812,19.812,0,0,0-3.624.137c.163,2.9.555,5.159.021,6.4-.642,1.194-2.647,2.288-5.017,3.97a20.83,20.83,0,0,0,2.146,2.915c.684.731,1.37,1.4,2.031,2.008.815-.667,1.583-1.264,2.291-1.8C18.506-447.051,19.17-447.533,19.8-447.975Zm-8.556-1.668c-1.389-2.419-2.115-5.35-1.242-6.99.741-1.7,3.482-2.957,6.239-3.383a36.823,36.823,0,0,1,.08-3.813,23.762,23.762,0,0,1,.534-3.307,20.111,20.111,0,0,0-3.8.43,17.556,17.556,0,0,0-3.676,1.328,12.706,12.706,0,0,0-5.639,5.726,12.684,12.684,0,0,0-.966,7.995,17.748,17.748,0,0,0,1.247,3.707,24.018,24.018,0,0,0,2.023,3.231A32.451,32.451,0,0,1,8.306-447.2C9.257-448.09,10.293-448.912,11.244-449.644Zm11.478,17.107q.081-1.291.158-2.535a7.6,7.6,0,0,0-.36-3.776,7.574,7.574,0,0,0-2.719-2.619c-.63-.443-1.295-.924-2.088-1.451-.708-.54-1.476-1.137-2.291-1.8-.661.609-1.347,1.278-2.031,2.008a20.83,20.83,0,0,0-2.146,2.915c2.37,1.683,4.375,2.776,5.017,3.97.534,1.243.142,3.5-.021,6.4a19.812,19.812,0,0,0,3.624.137,24.464,24.464,0,0,0,2.839-.344C22.65-430.632,22.712-431.66,22.722-432.536Zm-6.481,3.111c-2.757-.426-5.5-1.678-6.239-3.383-.873-1.639-.147-4.57,1.242-6.99-.951-.732-1.987-1.554-2.938-2.442a32.451,32.451,0,0,1-2.259-2.481,24.018,24.018,0,0,0-2.023,3.231,17.748,17.748,0,0,0-1.247,3.707,12.684,12.684,0,0,0,.966,7.995,12.706,12.706,0,0,0,5.639,5.726,17.556,17.556,0,0,0,3.676,1.328,20.111,20.111,0,0,0,3.8.43,23.762,23.762,0,0,1-.534-3.307A36.823,36.823,0,0,1,16.241-429.425Zm17.026-1.332a3.954,3.954,0,0,0-1.56-.744,4.781,4.781,0,0,0-1.714-.028,7.909,7.909,0,0,0-.971.226,10.591,10.591,0,0,0-1.05.273,47.118,47.118,0,0,1-5.268,1.4A26.787,26.787,0,0,0,23-426.783a17.646,17.646,0,0,0,.95,3.48l1.944-.556c.62-.209,1.2-.4,1.714-.548a5.665,5.665,0,0,1,2.562-.318,5.365,5.365,0,0,1,2.172,1.411c.813.69,1.75,1.643,2.823,2.573a17.476,17.476,0,0,0,2.369-2.737,21.053,21.053,0,0,0,1.5-2.43c-1.643-1.2-2.988-2.523-4.139-3.532A10.175,10.175,0,0,0,33.267-430.757Zm1.895,10.016a13.1,13.1,0,0,1-3.361,2.3,5.4,5.4,0,0,1-3.174.492,5.2,5.2,0,0,1-2.644-1.831,12.819,12.819,0,0,1-1.145-1.6,19.089,19.089,0,0,1-.891-1.923,29.325,29.325,0,0,1-3.75.791,24.224,24.224,0,0,1-3.342.208,16.586,16.586,0,0,0,3.387,6.883,17.948,17.948,0,0,0,1.387,1.446,14.758,14.758,0,0,0,1.626,1.193,11.844,11.844,0,0,0,3.831,1.611,13.2,13.2,0,0,0,4.143.229,15.437,15.437,0,0,0,3.843-1.081,17.023,17.023,0,0,0,6.039-4.742,21.142,21.142,0,0,1-2.92-1.65A30.006,30.006,0,0,1,35.162-420.741Zm14.115-14.992c-.865.181-1.757.268-2.5.4a14.256,14.256,0,0,0-2.035.446,4.092,4.092,0,0,0-1.556.769,4.7,4.7,0,0,0-1.1,1.327,7.343,7.343,0,0,0-.432.9c-.153.3-.3.628-.439.99a45.659,45.659,0,0,1-2.18,4.984,24.715,24.715,0,0,0,2.406,1.551,17.618,17.618,0,0,0,3.313,1.426l.777-1.867c.219-.62.428-1.187.639-1.683a5.591,5.591,0,0,1,1.353-2.2,5.166,5.166,0,0,1,2.465-.814c1.014-.234,2.407-.312,3.759-.611-.052-.617-.131-1.223-.228-1.807-.113-.6-.278-1.194-.434-1.747-.137-.469-.274-.922-.424-1.365l-.543-1.326c-.5.132-.957.258-1.43.362Zm8.178,4.71c-.622.193-1.225.382-1.848.534l-1.863.381a12.714,12.714,0,0,1-.289,4.074,5.549,5.549,0,0,1-1.6,2.783c-1.461,1.126-4.374,1.239-7.106.321a28.864,28.864,0,0,1-1.717,3.424,22.687,22.687,0,0,1-1.923,2.742,16.515,16.515,0,0,0,7.5,1.638,18.149,18.149,0,0,0,2-.183,15.553,15.553,0,0,0,1.943-.53,11.925,11.925,0,0,0,3.639-1.983,12.941,12.941,0,0,0,2.75-3.093A13.522,13.522,0,0,0,60.5-424.6a14.464,14.464,0,0,0,.479-3.883c0-.648-.034-1.287-.09-1.913-.073-.634-.2-1.272-.325-1.884q-.767.383-1.524.709C58.5-431.371,57.974-431.189,57.455-431.024Z" transform="translate(1.266 480.72)"/>
</svg>
